<?xml version="1.0" encoding="utf-8"?>
<!-- Generator: Adobe Illustrator 16.0.0, SVG Export Plug-In . SVG Version: 6.00 Build 0)  -->
<!DOCTYPE svg PUBLIC "-//W3C//DTD SVG 1.1//EN" "http://www.w3.org/Graphics/SVG/1.1/DTD/svg11.dtd">
<svg version="1.1" id="Capa_1" xmlns="http://www.w3.org/2000/svg" xmlns:xlink="http://www.w3.org/1999/xlink" x="0px" y="0px"
	 width="46px" height="46px" viewBox="0 0 46 46" enable-background="new 0 0 46 46" xml:space="preserve">
<g>
	<path fill="#1C1C1B" d="M40.927,24.719c0-2.976-2.422-5.396-5.397-5.397c-1.209,0-2.363,0.326-3.383,0.939L25.088,8.069
		l-3.43,5.941l-1.54-2.666l-4.101,7.19c-0.043-0.029-0.086-0.059-0.132-0.085c-0.713-0.407-1.541-0.513-2.333-0.296
		c-0.792,0.216-1.452,0.728-1.86,1.439c-0.487,0.854-0.613,1.848-0.354,2.797c0.024,0.092,0.056,0.18,0.088,0.269
		c-0.301-0.123-0.614-0.218-0.941-0.274c-1.169-0.2-2.349,0.065-3.317,0.751c-1.178,0.831-1.962,2.071-2.206,3.493
		c-0.245,1.42,0.078,2.853,0.91,4.029c1.243,1.759,3.326,2.809,5.522,2.809c0.155,0,0.312-0.005,0.468-0.016
		c0.432-0.029,0.854-0.104,1.268-0.216l0,0c0.456,0.894,1.232,1.557,2.186,1.865c0.32,0.104,0.645,0.152,0.964,0.152
		c1.32,0,2.551-0.842,2.979-2.164c0.217-0.668,0.161-1.381-0.158-2.008c-0.319-0.626-0.864-1.09-1.532-1.307
		c-1.169-0.381-2.432,0.264-2.812,1.434c-0.112,0.35-0.124,0.719-0.032,1.07l1.229-0.318c-0.031-0.118-0.027-0.243,0.011-0.359
		c0.164-0.506,0.708-0.783,1.213-0.619c0.346,0.112,0.628,0.354,0.793,0.678c0.165,0.324,0.194,0.693,0.082,1.039
		c-0.316,0.976-1.368,1.514-2.345,1.195c-0.631-0.205-1.145-0.644-1.446-1.234c-0.302-0.592-0.354-1.266-0.149-1.896
		c0.269-0.83,0.845-1.505,1.621-1.9c0.777-0.396,1.662-0.467,2.491-0.197c0.983,0.318,1.909,0.977,2.424,1.704
		c-0.005,0.087-0.014,0.174-0.014,0.262c0,2.978,2.422,5.397,5.397,5.397c2.802,0,5.198-1.76,6.149-4.229
		c0.697,0.818,1.729,1.3,2.81,1.3c0.389,0,0.782-0.062,1.171-0.191c1.984-0.668,3.212-2.596,3.004-4.652
		C40.232,27.441,40.927,26.162,40.927,24.719z M35.527,20.591c2.277,0,4.13,1.853,4.13,4.128c0,1.741-1.409,3.159-3.146,3.176
		c-0.432-0.774-1.228-1.267-2.091-1.324c-0.213-0.364-0.325-0.778-0.325-1.209c0-0.277,0.064-0.541,0.178-0.774l0.023,0.015
		c0.32-0.569,0.924-0.922,1.574-0.922l0,0c0.352,0,0.684,0.137,0.932,0.385s0.385,0.578,0.385,0.931h0.016
		c-0.061,0.453-0.444,0.806-0.913,0.806v1.27c1.21,0,2.194-0.984,2.194-2.194c0-1.426-1.159-2.586-2.586-2.586
		c-0.811,0-1.547,0.318-2.097,0.834l-1.021-1.763C33.607,20.856,34.546,20.591,35.527,20.591z M26.029,34.76
		c-2.275,0-4.127-1.853-4.127-4.129c0-0.926,0.399-1.757,1.034-2.338c0.053-0.044,0.104-0.089,0.154-0.136
		c0.545-0.438,1.235-0.702,1.987-0.702c0.422,0,0.817,0.109,1.164,0.301l-0.005,0.01c0.016,0.006,0.029,0.01,0.045,0.014
		c0.722,0.419,1.21,1.197,1.21,2.091c0,0.994-0.81,1.804-1.806,1.804c-0.726,0-1.315-0.591-1.315-1.316
		c0-0.51,0.415-0.926,0.926-0.926v-1.27c-1.21,0-2.194,0.984-2.194,2.195c0,1.426,1.16,2.586,2.585,2.586
		c1.693,0,3.072-1.379,3.072-3.073c0-0.688-0.191-1.329-0.521-1.881c0.695-0.08,1.373-0.32,1.966-0.72
		c1.687-1.131,2.138-3.424,1.007-5.109c-0.457-0.682-1.152-1.145-1.958-1.303c-0.806-0.159-1.625,0.006-2.306,0.463
		c-1.184,0.794-1.502,2.403-0.707,3.587c0.326,0.487,0.822,0.817,1.398,0.932c0.574,0.114,1.159-0.004,1.646-0.331l-0.707-1.054
		c-0.205,0.138-0.453,0.187-0.694,0.14c-0.243-0.048-0.452-0.188-0.59-0.393c-0.403-0.604-0.243-1.423,0.358-1.827
		c0.399-0.269,0.881-0.364,1.354-0.271c0.474,0.093,0.882,0.365,1.149,0.765c0.74,1.104,0.445,2.608-0.66,3.35
		c-0.811,0.544-1.798,0.681-2.725,0.388c-0.508-0.266-1.084-0.418-1.694-0.418c-0.358,0-0.706,0.049-1.04,0.129
		c0.273-1.91-0.982-3.734-2.897-4.13c-1.333-0.274-2.698,0.068-3.745,0.94l0,0h-0.001c0,0.001-0.001,0.001-0.001,0.002l0,0
		l-0.061,0.051l0.834,0.956l0.037-0.031l-0.403-0.49l0.406,0.486c0.749-0.625,1.726-0.872,2.679-0.674
		c1.303,0.27,2.145,1.549,1.876,2.852c-0.074,0.359-0.252,0.673-0.494,0.914c-0.052,0.041-0.1,0.088-0.148,0.133
		c-0.405,0.322-0.943,0.471-1.489,0.355c-0.344-0.07-0.64-0.271-0.833-0.564c-0.193-0.295-0.261-0.646-0.189-0.989
		c0.05-0.243,0.191-0.451,0.397-0.587c0.207-0.137,0.454-0.184,0.696-0.133l0.256-1.243c-0.574-0.118-1.16-0.007-1.649,0.315
		c-0.489,0.321-0.825,0.815-0.943,1.391c-0.11,0.533-0.048,1.076,0.169,1.566c-1.128-0.344-2.324-0.242-3.377,0.297
		c-1.079,0.55-1.879,1.486-2.252,2.639c-0.177,0.542-0.222,1.104-0.148,1.652c-0.319,0.082-0.646,0.139-0.98,0.16
		c-1.924,0.131-3.79-0.733-4.867-2.259c-0.636-0.899-0.883-1.995-0.695-3.082c0.187-1.087,0.786-2.036,1.687-2.672
		c0.693-0.489,1.535-0.679,2.371-0.536c0.836,0.145,1.565,0.605,2.055,1.299l0.519-0.367l-0.519,0.367
		c0.372,0.526,0.518,1.166,0.407,1.801c-0.108,0.637-0.459,1.19-0.986,1.562c-0.394,0.278-0.871,0.387-1.347,0.305
		c-0.475-0.08-0.889-0.343-1.167-0.735c-0.419-0.595-0.277-1.417,0.315-1.835c0.417-0.295,0.996-0.195,1.291,0.222l1.036-0.731
		c-0.697-0.987-2.069-1.225-3.06-0.526c-1.164,0.823-1.442,2.438-0.62,3.604c0.474,0.67,1.181,1.116,1.989,1.256
		c0.176,0.029,0.353,0.045,0.527,0.045c0.63,0,1.242-0.192,1.767-0.563c0.804-0.567,1.338-1.414,1.505-2.383
		c0.119-0.688,0.038-1.381-0.221-2.013c0.487,0.175,0.997,0.264,1.505,0.264c1.036,0,2.065-0.359,2.887-1.061l-0.823-0.964
		c-1.016,0.865-2.477,1.001-3.637,0.339c-0.56-0.319-0.962-0.838-1.131-1.46c-0.17-0.622-0.088-1.273,0.232-1.833
		c0.239-0.418,0.626-0.719,1.092-0.846c0.464-0.126,0.951-0.064,1.369,0.174c0.306,0.175,0.524,0.458,0.617,0.797
		s0.048,0.694-0.127,0.999c-0.123,0.215-0.321,0.369-0.561,0.435c-0.238,0.065-0.487,0.033-0.703-0.09l-0.629,1.103
		c0.51,0.29,1.101,0.366,1.667,0.212c0.565-0.155,1.037-0.521,1.327-1.029c0.343-0.6,0.432-1.297,0.25-1.963
		c-0.047-0.17-0.109-0.332-0.187-0.485l3.214-5.635l1.533,2.653l3.432-5.943l7.929,13.697c-0.123,0.33-0.191,0.688-0.191,1.06
		c0,0.508,0.104,1.001,0.302,1.458c-1.147,0.525-1.842,1.699-1.787,2.93C31.182,32.538,28.859,34.76,26.029,34.76z M35.756,31.704
		c-1.262,0.426-2.634-0.257-3.058-1.519c-0.05-0.146-0.076-0.293-0.087-0.438c0.005-0.103,0.008-0.204,0.008-0.308h-0.006
		c0.066-0.687,0.523-1.306,1.22-1.539c0.688-0.23,1.437,0.141,1.667,0.828c0.079,0.234,0.062,0.485-0.048,0.707
		c-0.11,0.223-0.3,0.388-0.534,0.467l0.404,1.203c0.556-0.188,1.006-0.58,1.267-1.104c0.136-0.271,0.209-0.562,0.226-0.854
		c0.381-0.027,0.748-0.104,1.097-0.224C37.823,30.18,36.998,31.287,35.756,31.704z"/>
	<path fill="#1C1C1B" d="M22.904,0.5c-12.406,0-22.5,10.094-22.5,22.5s10.094,22.5,22.5,22.5c12.407,0,22.5-10.094,22.5-22.5
		S35.311,0.5,22.904,0.5z M22.904,44.23C11.197,44.23,1.673,34.707,1.673,23S11.197,1.77,22.904,1.77
		c11.708,0,21.233,9.523,21.233,21.23S34.611,44.23,22.904,44.23z"/>
</g>
</svg>
