<?xml version="1.0" encoding="utf-8"?>
<!-- Generator: Adobe Illustrator 16.0.0, SVG Export Plug-In . SVG Version: 6.00 Build 0)  -->
<!DOCTYPE svg PUBLIC "-//W3C//DTD SVG 1.1//EN" "http://www.w3.org/Graphics/SVG/1.1/DTD/svg11.dtd">
<svg version="1.1" id="Capa_1" xmlns="http://www.w3.org/2000/svg" xmlns:xlink="http://www.w3.org/1999/xlink" x="0px" y="0px"
	 width="489px" height="151px" viewBox="0 0 489 151" enable-background="new 0 0 489 151" xml:space="preserve">
<g>
	<path fill="#593C2C" d="M164.209,84.73c0-12.11-9.855-21.964-21.967-21.966c-4.92,0-9.619,1.327-13.766,3.824L99.754,16.974
		L85.796,41.153l-6.266-10.85l-16.687,29.26c-0.178-0.116-0.352-0.237-0.538-0.343c-2.9-1.657-6.271-2.085-9.495-1.206
		c-3.223,0.879-5.911,2.961-7.568,5.861c-1.984,3.477-2.498,7.518-1.444,11.38c0.101,0.372,0.229,0.732,0.356,1.093
		c-1.22-0.501-2.498-0.886-3.83-1.115c-4.757-0.816-9.557,0.265-13.502,3.053c-4.791,3.385-7.98,8.433-8.975,14.216
		c-0.996,5.782,0.319,11.606,3.705,16.397c5.057,7.16,13.536,11.432,22.471,11.432c0.632,0,1.268-0.022,1.905-0.065
		c1.756-0.12,3.479-0.426,5.159-0.876l0,0c1.854,3.637,5.013,6.332,8.895,7.592c1.301,0.422,2.623,0.623,3.922,0.623
		c5.373,0,10.381-3.429,12.126-8.809c0.882-2.719,0.652-5.621-0.647-8.168c-1.299-2.549-3.513-4.438-6.233-5.32
		c-4.759-1.546-9.895,1.071-11.44,5.836c-0.46,1.416-0.504,2.924-0.131,4.359l4.998-1.302c-0.126-0.48-0.109-0.987,0.045-1.465
		c0.667-2.054,2.878-3.184,4.934-2.517c1.409,0.456,2.554,1.435,3.226,2.754c0.674,1.319,0.792,2.82,0.336,4.229
		c-1.29,3.972-5.568,6.159-9.542,4.867c-2.569-0.834-4.66-2.619-5.887-5.024c-1.227-2.406-1.444-5.147-0.608-7.717
		c1.094-3.376,3.438-6.123,6.6-7.735c3.161-1.611,6.762-1.896,10.137-0.802c4,1.298,7.769,3.97,9.861,6.935
		c-0.02,0.354-0.054,0.705-0.054,1.063c0,12.112,9.853,21.966,21.965,21.966c11.401,0,21.156-7.156,25.026-17.21
		c2.837,3.333,7.03,5.292,11.43,5.292c1.582,0,3.189-0.252,4.768-0.783c8.08-2.719,13.069-10.564,12.222-18.932
		C161.383,95.814,164.209,90.603,164.209,84.73z M142.242,67.929c9.265,0.001,16.803,7.539,16.803,16.801
		c0,7.086-5.734,12.854-12.807,12.919c-1.751-3.153-4.991-5.15-8.504-5.384c-0.866-1.489-1.325-3.174-1.325-4.924
		c0-1.13,0.264-2.197,0.721-3.154l0.101,0.057c1.303-2.314,3.756-3.753,6.405-3.753c0.001,0,0.001,0,0.001,0
		c1.431,0,2.777,0.558,3.789,1.568c1.01,1.012,1.568,2.356,1.567,3.787h0.062c-0.244,1.845-1.809,3.278-3.718,3.278v5.164
		c4.925,0,8.932-4.007,8.932-8.933c0-5.801-4.719-10.521-10.521-10.521c-3.3,0-6.297,1.295-8.535,3.392l-4.152-7.172
		C134.427,69.013,138.243,67.929,142.242,67.929z M103.591,125.59c-9.265,0-16.801-7.537-16.801-16.802
		c0-3.767,1.629-7.15,4.208-9.515c0.217-0.176,0.425-0.361,0.63-0.551c2.216-1.784,5.026-2.858,8.086-2.858
		c1.718,0,3.332,0.445,4.737,1.223l-0.017,0.044c0.059,0.021,0.119,0.034,0.178,0.055c2.938,1.7,4.924,4.87,4.924,8.502
		c0,4.048-3.293,7.342-7.343,7.342c-2.954,0-5.356-2.402-5.356-5.357c0-2.078,1.691-3.769,3.767-3.769v-5.165
		c-4.924,0-8.932,4.008-8.932,8.934c0,5.802,4.721,10.522,10.521,10.522c6.897,0,12.507-5.611,12.507-12.507
		c0-2.798-0.784-5.408-2.124-7.651c2.831-0.328,5.584-1.306,7.999-2.925c6.862-4.604,8.7-13.935,4.097-20.796
		c-1.861-2.774-4.692-4.658-7.97-5.303c-3.28-0.646-6.612,0.023-9.382,1.885c-4.816,3.23-6.105,9.778-2.876,14.596
		c1.33,1.983,3.35,3.329,5.692,3.79c2.338,0.461,4.721-0.016,6.703-1.347l-2.876-4.288c-0.835,0.561-1.844,0.761-2.828,0.568
		c-0.987-0.194-1.839-0.763-2.4-1.599c-1.646-2.454-0.99-5.788,1.464-7.434c1.627-1.093,3.581-1.484,5.507-1.106
		c1.925,0.379,3.586,1.484,4.679,3.113c3.016,4.498,1.812,10.613-2.685,13.632c-3.302,2.214-7.32,2.766-11.09,1.571
		c-2.066-1.077-4.408-1.695-6.896-1.695c-1.459,0-2.873,0.193-4.233,0.521c1.12-7.773-3.996-15.199-11.788-16.807
		c-5.425-1.117-10.983,0.276-15.244,3.826l0,0l-0.002,0.002c-0.001,0.001-0.003,0.003-0.007,0.005l0,0l-0.244,0.207l3.394,3.893
		l0.15-0.127l-1.646-1.99l1.654,1.983c3.048-2.544,7.02-3.546,10.9-2.74c5.304,1.094,8.728,6.3,7.635,11.604
		c-0.303,1.463-1.024,2.733-2.012,3.716c-0.21,0.172-0.403,0.36-0.604,0.54c-1.647,1.312-3.84,1.914-6.059,1.451
		c-1.402-0.289-2.606-1.105-3.393-2.302c-0.787-1.195-1.061-2.625-0.77-4.026c0.204-0.987,0.778-1.835,1.617-2.388
		c0.842-0.555,1.849-0.744,2.833-0.542l1.044-5.059c-2.338-0.48-4.722-0.024-6.714,1.286s-3.355,3.32-3.838,5.657
		c-0.449,2.176-0.197,4.385,0.688,6.377c-4.591-1.396-9.458-0.982-13.743,1.205c-4.391,2.239-7.646,6.054-9.165,10.74
		c-0.716,2.205-0.901,4.491-0.604,6.722c-1.3,0.336-2.631,0.565-3.988,0.658c-7.831,0.529-15.424-2.989-19.807-9.193
		c-2.589-3.664-3.596-8.119-2.833-12.542c0.761-4.423,3.199-8.285,6.865-10.873c2.819-1.992,6.246-2.762,9.646-2.182
		c3.402,0.586,6.373,2.462,8.365,5.282l2.108-1.489l-2.108,1.49c1.513,2.143,2.103,4.745,1.657,7.331
		c-0.445,2.585-1.871,4.842-4.014,6.356c-1.602,1.132-3.545,1.571-5.48,1.239c-1.934-0.332-3.62-1.397-4.752-3
		c-1.705-2.413-1.128-5.764,1.284-7.468c1.698-1.196,4.057-0.791,5.255,0.905l4.218-2.98c-2.841-4.02-8.424-4.981-12.452-2.143
		c-4.739,3.348-5.87,9.927-2.523,14.665c1.928,2.729,4.803,4.544,8.094,5.11c0.716,0.123,1.434,0.184,2.147,0.184
		c2.56,0,5.055-0.786,7.188-2.295c3.271-2.31,5.447-5.754,6.125-9.698c0.484-2.806,0.155-5.619-0.898-8.189
		c1.984,0.713,4.057,1.074,6.125,1.074c4.216,0,8.404-1.463,11.746-4.311l-3.35-3.931c-4.132,3.523-10.079,4.078-14.799,1.382
		c-2.278-1.3-3.914-3.411-4.603-5.942c-0.691-2.531-0.354-5.181,0.947-7.458c0.972-1.703,2.55-2.925,4.443-3.441
		c1.888-0.514,3.87-0.265,5.573,0.708c1.242,0.71,2.135,1.861,2.512,3.241s0.193,2.824-0.518,4.066
		c-0.5,0.875-1.308,1.502-2.28,1.768c-0.972,0.265-1.985,0.136-2.861-0.364l-2.56,4.485c2.073,1.182,4.479,1.488,6.781,0.86
		c2.302-0.629,4.221-2.116,5.405-4.188c1.394-2.439,1.755-5.276,1.014-7.988c-0.188-0.689-0.442-1.349-0.756-1.972L79.56,40.679
		l6.238,10.801l13.963-24.187l32.265,55.736c-0.498,1.347-0.782,2.795-0.782,4.312c0,2.066,0.424,4.072,1.227,5.93
		c-4.673,2.14-7.493,6.919-7.272,11.923C124.549,116.551,115.106,125.59,103.591,125.59z M143.167,113.157
		c-5.132,1.729-10.715-1.045-12.443-6.177c-0.198-0.592-0.308-1.192-0.353-1.788c0.019-0.414,0.032-0.83,0.032-1.25h-0.022
		c0.272-2.794,2.135-5.311,4.961-6.261c2.799-0.943,5.844,0.569,6.787,3.369c0.321,0.954,0.252,1.976-0.196,2.877
		c-0.447,0.901-1.221,1.575-2.176,1.897l1.647,4.894c2.263-0.762,4.092-2.357,5.154-4.494c0.548-1.102,0.853-2.28,0.918-3.474
		c1.55-0.116,3.043-0.426,4.46-0.908C151.581,106.948,148.222,111.458,143.167,113.157z"/>
	<g>
		<path fill="#593C2C" d="M193.865,101.019v-4.613l14.995-23.749c-2.306,0.135-4.591,0.204-6.853,0.204h-6.649l-0.951-5.632h23.478
			v4.614l-14.792,23.749c2.035-0.136,4.071-0.203,6.107-0.203h9.296v5.631H193.865z"/>
		<path fill="#593C2C" d="M222.398,76.931c0.836-2.306,1.99-4.241,3.459-5.801c1.47-1.561,3.2-2.737,5.191-3.529
			c1.99-0.79,4.139-1.187,6.446-1.187c2.037,0,3.767,0.25,5.191,0.747c1.425,0.499,2.588,1.177,3.495,2.037
			c0.904,0.86,1.571,1.877,2.001,3.053c0.43,1.177,0.645,2.443,0.645,3.8c0,1.628-0.452,3.179-1.357,4.647
			c-0.905,1.47-2.204,2.76-3.901,3.867c-1.696,1.109-3.744,1.991-6.141,2.646c-2.397,0.657-5.088,1.008-8.074,1.052
			c0.135,1.041,0.35,2.026,0.645,2.951c0.293,0.928,0.722,1.742,1.289,2.443c0.564,0.702,1.3,1.255,2.205,1.662
			c0.904,0.407,2.036,0.611,3.395,0.611c0.993,0,2.057-0.113,3.189-0.34c1.129-0.227,2.169-0.497,3.12-0.813
			c1.13-0.361,2.239-0.77,3.325-1.222l2.036,4.817c-1.178,0.589-2.444,1.109-3.799,1.56c-1.179,0.409-2.535,0.771-4.073,1.086
			c-1.538,0.316-3.167,0.477-4.886,0.477c-2.624,0-4.862-0.397-6.716-1.188c-1.856-0.79-3.372-1.909-4.547-3.359
			c-1.176-1.445-2.036-3.188-2.579-5.223c-0.542-2.036-0.814-4.299-0.814-6.787C221.142,81.908,221.559,79.238,222.398,76.931z
			 M233.186,72.758c-0.974,0.702-1.752,1.607-2.34,2.715c-0.589,1.108-1.007,2.353-1.255,3.731c-0.249,1.38-0.396,2.771-0.441,4.174
			c2.171-0.09,4.014-0.374,5.53-0.85c1.516-0.475,2.748-1.062,3.698-1.763c0.95-0.701,1.639-1.46,2.07-2.273
			c0.429-0.814,0.645-1.629,0.645-2.442c0-1.312-0.386-2.365-1.153-3.156c-0.771-0.791-1.789-1.188-3.053-1.188
			C235.391,71.706,234.158,72.057,233.186,72.758z"/>
		<path fill="#593C2C" d="M267.214,74.896c-0.814,0.407-1.537,0.961-2.172,1.662c-0.632,0.702-1.153,1.552-1.56,2.545
			c-0.407,0.996-0.61,2.103-0.61,3.325v18.591h-7.735V83.921c0-2.716-0.183-4.988-0.542-6.82c-0.363-1.832-0.747-3.313-1.153-4.444
			c-0.498-1.311-1.042-2.375-1.629-3.189l6.106-2.442c0.407,0.498,0.836,1.109,1.288,1.832c0.361,0.634,0.725,1.38,1.087,2.24
			c0.361,0.858,0.655,1.877,0.882,3.052c0.904-2.623,2.216-4.511,3.936-5.665c1.719-1.154,3.664-1.73,5.836-1.73
			c1.04,0,2.012,0.125,2.917,0.373c0.905,0.249,1.334,0.373,1.29,0.373l-2.172,7.532c0.044,0-0.214-0.124-0.779-0.373
			c-0.567-0.248-1.417-0.374-2.546-0.374C268.843,74.285,268.028,74.488,267.214,74.896z"/>
		<path fill="#593C2C" d="M298.901,67.228h7.736v17.438c0,2.714,0.168,4.988,0.509,6.819c0.339,1.833,0.712,3.314,1.119,4.445
			c0.497,1.356,1.039,2.419,1.628,3.188l-6.039,2.443c-0.542-0.5-1.041-1.13-1.492-1.901c-0.363-0.632-0.736-1.413-1.118-2.34
			c-0.387-0.927-0.646-2.024-0.782-3.291c-1.221,2.669-2.94,4.569-5.155,5.699c-2.218,1.132-4.526,1.697-6.922,1.697
			c-3.575,0-6.12-1.041-7.634-3.121c-1.516-2.08-2.273-4.93-2.273-8.55V67.228h7.735v22.391c0,1.901,0.339,3.393,1.019,4.478
			c0.677,1.087,1.83,1.63,3.459,1.63c0.995,0,1.979-0.282,2.952-0.848s1.854-1.368,2.647-2.409c0.79-1.04,1.425-2.296,1.899-3.767
			c0.475-1.469,0.712-3.109,0.712-4.918V67.228z"/>
		<path fill="#593C2C" d="M354.066,101.019V78.899c0-1.899-0.294-3.404-0.883-4.512c-0.587-1.108-1.605-1.663-3.053-1.663
			c-0.859,0-1.729,0.237-2.612,0.711c-0.883,0.476-1.687,1.165-2.409,2.07c-0.723,0.906-1.312,1.991-1.764,3.257
			c-0.453,1.268-0.679,2.671-0.679,4.207v18.049H335V78.899c0-1.899-0.296-3.404-0.883-4.512c-0.589-1.108-1.605-1.663-3.053-1.663
			c-0.905,0-1.798,0.261-2.682,0.781c-0.881,0.52-1.673,1.278-2.374,2.272c-0.702,0.995-1.267,2.205-1.695,3.63
			c-0.432,1.427-0.646,3.021-0.646,4.785v16.826h-7.735V83.921c0-2.716-0.182-4.988-0.542-6.82
			c-0.362-1.832-0.747-3.313-1.153-4.444c-0.5-1.311-1.042-2.375-1.629-3.189l6.106-2.442c0.452,0.498,0.904,1.109,1.358,1.832
			c0.359,0.634,0.722,1.414,1.084,2.341c0.361,0.928,0.655,1.98,0.883,3.154c1.131-2.713,2.725-4.67,4.782-5.868
			c2.059-1.2,4.242-1.8,6.55-1.8c2.306,0,4.104,0.589,5.393,1.765c1.29,1.178,2.251,2.691,2.885,4.546
			c1.221-2.261,2.793-3.877,4.716-4.851c1.922-0.973,3.946-1.46,6.073-1.46c1.764,0,3.244,0.284,4.443,0.849
			c1.199,0.566,2.148,1.358,2.851,2.375c0.701,1.019,1.21,2.24,1.525,3.665c0.316,1.424,0.477,3.02,0.477,4.783v22.663H354.066z"/>
		<path fill="#593C2C" d="M389.555,67.228h7.733v17.438c0,2.714,0.17,4.988,0.509,6.819c0.341,1.833,0.714,3.314,1.119,4.445
			c0.499,1.356,1.041,2.419,1.63,3.188l-6.039,2.443c-0.542-0.5-1.041-1.13-1.493-1.901c-0.361-0.632-0.736-1.413-1.119-2.34
			c-0.385-0.927-0.646-2.024-0.78-3.291c-1.221,2.669-2.941,4.569-5.156,5.699c-2.218,1.132-4.523,1.697-6.921,1.697
			c-3.574,0-6.119-1.041-7.635-3.121c-1.515-2.08-2.273-4.93-2.273-8.55V67.228h7.736v22.391c0,1.901,0.339,3.393,1.019,4.478
			c0.677,1.087,1.831,1.63,3.459,1.63c0.995,0,1.979-0.282,2.951-0.848s1.854-1.368,2.648-2.409c0.791-1.04,1.423-2.296,1.898-3.767
			c0.475-1.469,0.714-3.109,0.714-4.918V67.228z"/>
		<path fill="#593C2C" d="M411.062,106.991c0.679,0.271,1.401,0.552,2.172,0.847c0.769,0.295,1.583,0.577,2.441,0.849
			c0.859,0.272,1.731,0.498,2.613,0.679c0.883,0.181,1.754,0.271,2.612,0.271c2.532,0,4.364-0.757,5.497-2.273
			c1.13-1.516,1.696-3.472,1.696-5.868c0-2.354-0.499-4.728-1.493-7.125c-0.771,2.307-1.979,4.06-3.631,5.258
			c-1.65,1.199-3.832,1.799-6.547,1.799c-2.127,0-3.97-0.396-5.529-1.188c-1.562-0.79-2.862-1.922-3.902-3.394
			c-1.04-1.47-1.81-3.244-2.308-5.325c-0.499-2.081-0.747-4.388-0.747-6.923c0-2.577,0.397-4.962,1.188-7.158
			c0.791-2.193,1.9-4.081,3.324-5.665c1.426-1.582,3.133-2.827,5.123-3.732c1.99-0.905,4.185-1.358,6.581-1.358
			c1.086,0,2.251,0.07,3.496,0.205c1.243,0.136,2.466,0.306,3.664,0.509c1.197,0.203,2.328,0.419,3.393,0.645
			c1.062,0.227,1.978,0.431,2.747,0.61l-0.338,18.66c-0.047,1.357,0.033,2.602,0.236,3.732c0.205,1.132,0.439,2.251,0.713,3.359
			c0.271,1.109,0.52,2.227,0.746,3.357c0.227,1.132,0.339,2.376,0.339,3.733c0,4.793-1.22,8.367-3.663,10.719
			c-2.444,2.353-5.746,3.53-9.906,3.53c-1.358,0-2.716-0.127-4.072-0.374c-1.357-0.248-2.612-0.531-3.765-0.847
			c-1.155-0.318-2.138-0.636-2.952-0.952c-0.814-0.315-1.358-0.541-1.629-0.678L411.062,106.991z M420.732,94.912
			c0.926-0.722,1.753-1.684,2.476-2.884c0.724-1.196,1.288-2.566,1.697-4.104c0.406-1.537,0.609-3.122,0.609-4.75V72.86
			c-0.452-0.135-1.131-0.293-2.036-0.475c-0.903-0.181-1.718-0.272-2.441-0.272c-1.719,0-3.132,0.296-4.24,0.883
			c-1.108,0.588-2.001,1.404-2.68,2.444c-0.68,1.04-1.154,2.284-1.426,3.73c-0.271,1.448-0.407,3.031-0.407,4.751
			c0,1.583,0.044,3.098,0.137,4.545c0.089,1.448,0.327,2.738,0.711,3.868c0.385,1.132,0.938,2.025,1.664,2.68
			c0.722,0.658,1.693,0.984,2.916,0.984C418.799,95.998,419.804,95.636,420.732,94.912z"/>
		<path fill="#593C2C" d="M468.534,84.666c0,2.714,0.171,4.988,0.51,6.819c0.339,1.833,0.711,3.314,1.119,4.445
			c0.497,1.356,1.04,2.419,1.629,3.188l-6.038,2.443c-0.589-0.589-1.132-1.29-1.63-2.104c-0.408-0.722-0.791-1.595-1.152-2.612
			c-0.363-1.017-0.589-2.227-0.68-3.629c-0.77,2.714-2.002,4.76-3.698,6.14c-1.695,1.38-3.993,2.07-6.888,2.07
			c-2.126,0-3.968-0.396-5.529-1.188c-1.56-0.79-2.861-1.922-3.901-3.394c-1.041-1.47-1.811-3.244-2.308-5.325
			c-0.498-2.081-0.747-4.388-0.747-6.923c0-2.577,0.396-4.962,1.188-7.158c0.791-2.193,1.899-4.081,3.325-5.665
			c1.424-1.582,3.131-2.827,5.124-3.732c1.988-0.905,4.181-1.358,6.581-1.358c1.357,0,2.769,0.103,4.241,0.307
			c1.469,0.203,2.838,0.419,4.105,0.645c1.265,0.225,2.339,0.44,3.222,0.644c0.882,0.204,1.392,0.329,1.526,0.373V84.666z
			 M456.117,94.845c0.95-0.77,1.775-1.775,2.477-3.019c0.701-1.245,1.242-2.671,1.629-4.277c0.384-1.604,0.577-3.243,0.577-4.919
			v-9.77c-0.453-0.135-1.132-0.293-2.036-0.475c-0.906-0.181-1.72-0.272-2.441-0.272c-1.722,0-3.135,0.296-4.242,0.883
			c-1.109,0.588-2.003,1.404-2.681,2.444c-0.679,1.04-1.153,2.284-1.425,3.73c-0.272,1.448-0.406,3.031-0.406,4.751
			c0,1.583,0.044,3.098,0.134,4.545c0.091,1.448,0.328,2.738,0.714,3.868c0.384,1.132,0.938,2.025,1.661,2.68
			c0.725,0.658,1.698,0.984,2.919,0.984C454.127,95.998,455.168,95.615,456.117,94.845z"/>
	</g>
</g>
</svg>
